# xmcd
#
# Track frame offsets: 
#        150
#        21174
#        35574
#        55821
#        70458
#        84311
#
# Disc length: 1398 seconds
#
# Revision: 0
# Processed by: cddbd v1.5.2PL0 Copyright (c) Steve Scherf et al.
# Submitted via: ExactAudioCopy v0.99pb3
#
DISCID=49057406
DTITLE=Red Beard - Nobody's Gonna Bring Me Down (Volume I) [PaperslipM
DTITLE=CD]
DYEAR=2012
DGENRE=Americana
TTITLE0=No Matter Where's the End
TTITLE1=Nobody's Gonna Bring Me Down
TTITLE2=Here Comes the Storm
TTITLE3=Hard Feelings
TTITLE4=Ain't Got Nothing
TTITLE5=The Fence
EXTD=
EXTT0=
EXTT1=
EXTT2=
EXTT3=
EXTT4=
EXTT5=
PLAYORDER=
